<svg width="256" height="256" viewBox="0 0 256 256" fill="none" xmlns="http://www.w3.org/2000/svg">
  <rect width="256" height="256" rx="44" fill="#F8F7F3"/>
  <rect x="60" y="72" width="26" height="66" rx="4" fill="#454545"/>
  <rect x="96" y="52" width="26" height="86" rx="4" fill="#454545"/>
  <rect x="132" y="32" width="26" height="106" rx="4" fill="#454545"/>
  <rect x="52" y="142" width="112" height="7" rx="3.5" fill="#454545"/>
  <path d="M95.233 161.078C92.845 158.905 89.155 159.08 86.9818 161.468C84.8087 163.856 84.984 167.545 87.3715 169.719L122.927 202.082C123.999 203.057 125.397 203.594 126.846 203.594H156.655C158.249 203.594 159.769 202.944 160.863 201.796L174.687 187.282C177.051 184.8 176.955 180.87 174.474 178.505L166.209 170.629C164.824 169.31 162.929 168.668 161.028 168.88L147.198 170.42L139.399 165.781C137.078 164.4 134.206 164.33 131.821 165.596L122.548 170.519L95.233 161.078Z" fill="#454545"/>
  <path d="M149.579 145.214C151.102 142.397 154.624 141.347 157.441 142.871L186.915 158.814C192.835 162.015 197.373 167.277 199.696 173.612L173.673 186.829L150.989 173.572C148.214 171.95 147.185 168.39 148.688 165.549L153.651 156.171L149.579 145.214Z" fill="#454545"/>
  <path d="M182.679 184.739L203.712 208.538C207.059 212.325 206.702 218.109 202.915 221.456L191.57 231.488C187.783 234.835 181.999 234.478 178.652 230.691L160.955 210.669L182.679 184.739Z" fill="#454545"/>
  <rect x="164.767" y="189.946" width="38" height="8" rx="4" transform="rotate(-40 164.767 189.946)" fill="#F8F7F3"/>
  <circle cx="192" cy="214" r="5.5" fill="#F8F7F3"/>
  <circle cx="192" cy="214" r="2.4" fill="#454545"/>
</svg>
